<svg xmlns="http://www.w3.org/2000/svg" viewBox="0 0 900 460" width="900" height="460" role="img" aria-label="Food truck monocromatico outline">
  <defs>
    <style>
      :root{ --ink:#0d0d0d; }
    </style>
  </defs>

  <!-- Tutto in outline (senza riempimenti) -->
  <g fill="none" stroke="var(--ink)" stroke-linecap="round" stroke-linejoin="round" transform="translate(20,14)">

    <!-- Spessore principale -->
    <g stroke-width="18">
      <!-- Cassone -->
      <rect x="80" y="96" width="410" height="232" rx="28"/>

      <!-- Cabina con muso a 45°, base allineata al cassone -->
      <path d="M510,120 L630,120 L720,210 L720,328 L510,328 Z"/>

      <!-- Banco e finestra di servizio -->
      <rect x="136" y="156" width="250" height="72" rx="16"/>
      <rect x="124" y="120" width="274" height="34" rx="12"/>
      <rect x="136" y="248" width="250" height="24" rx="12"/>

      <!-- Piatto (outline) -->
      <ellipse cx="262" cy="256" rx="68" ry="18"/>

      <!-- Ruote: contorno -->
      <circle cx="248" cy="340" r="44"/>
      <circle cx="570" cy="340" r="44"/>
    </g>

    <!-- Finestrino trapezio rettangolo (bordo più sottile) -->
    <polygon points="540,150 606,150 666,210 540,210" stroke-width="10"/>

    <!-- Maniglia: riga nera -->
    <line x1="540" y1="238" x2="580" y2="238" stroke-width="10"/>

    <!-- Fanale rettangolare interno al muso (outline, bordo più marcato) -->
    <rect x="688" y="246" width="32" height="24" rx="3" stroke-width="14"/>

    <!-- Dettagli ruote: cerchioni minimal (solo stroke) -->
    <g stroke-width="8">
      <circle cx="248" cy="340" r="24"/>
      <circle cx="570" cy="340" r="24"/>
    </g>
    <g stroke-width="6">
      <!-- Posteriore raggi -->
      <line x1="248" y1="316" x2="248" y2="364"/>
      <line x1="224" y1="340" x2="272" y2="340"/>
      <line x1="231" y1="323" x2="265" y2="357"/>
      <line x1="231" y1="357" x2="265" y2="323"/>
      <!-- Anteriore raggi -->
      <line x1="570" y1="316" x2="570" y2="364"/>
      <line x1="546" y1="340" x2="594" y2="340"/>
      <line x1="553" y1="323" x2="587" y2="357"/>
      <line x1="553" y1="357" x2="587" y2="323"/>
    </g>

    <!-- Pasta e fumi in outline (monocromo) -->
    <g stroke-width="9">
      <path d="M210 250 q26 -16 52 0 q26 -16 52 0"/>
    </g>
    <g stroke-width="7">
      <path d="M218 260 q22 -10 44 0 q22 -10 44 0"/>
    </g>
    <g stroke-width="8">
      <path d="M262 206 q-14 -24 0 -44 q14 -18 0 -34"/>
      <path d="M288 216 q-14 -26 6 -44 q12 -18 -6 -36"/>
      <path d="M236 216 q-14 -26 6 -44 q12 -18 -6 -36"/>
    </g>
  </g>
</svg>
